<?xml version="1.0" encoding="utf-8"?>
<!-- Generator: Adobe Illustrator 28.3.0, SVG Export Plug-In . SVG Version: 6.00 Build 0)  -->
<svg version="1.1" id="Layer_1" xmlns="http://www.w3.org/2000/svg" xmlns:xlink="http://www.w3.org/1999/xlink" x="0px" y="0px"
	 viewBox="0 0 409.6 409.6" style="enable-background:new 0 0 409.6 409.6;" xml:space="preserve">
<style type="text/css">
	.st0{fill:#0B0906;}
	.st1{fill:none;}
</style>
<g>
	<path class="st0" d="M103.83,409.54c-1.46-1.55-3.56-1.31-5.36-1.9c-17.27-5.65-29.58-21.93-29.63-40.18
		c-0.14-50.94-0.12-101.88-0.01-152.82c0.02-10.64,4.65-18.99,14.45-23.77c2.38-1.16,2.42-2.65,2.42-4.68
		c-0.03-21.15-0.14-42.29,0.03-63.44c0.12-15.42,2.18-30.59,7.95-45.03c13.69-34.28,37.83-57.94,72.61-70.37
		c18.53-6.62,37.6-8.11,57.14-5.09c25.3,3.92,47.06,14.82,65.23,32.63c18.16,17.8,29.59,39.32,33.95,64.52
		c1.71,9.86,2.07,19.77,2.1,29.72c0.06,19.02,0.03,38.04,0,57.06c0,2.04,0.05,3.52,2.43,4.68c9.65,4.69,14.39,12.9,14.42,23.37
		c0.15,51.2,0.18,102.41-0.01,153.61c-0.08,21.59-17.88,39.16-35.82,40.95c-0.27,0.03-0.5,0.47-0.74,0.72
		C237.92,409.54,170.88,409.54,103.83,409.54z M290.64,187.62c5.55,1.29,11.09,1.33,16.64-0.02c0.03-19.41,0.01-38.83,0.1-58.24
		c0.04-8.37-0.25-16.7-1.54-24.99c-4.06-26.09-16.46-47.5-36.96-63.92c-22.67-18.16-48.75-24.94-77.55-21.3
		c-21.95,2.78-40.88,12.08-56.71,27.31c-20.38,19.61-30.78,43.97-31.44,72.13c-0.54,22.99-0.08,46-0.06,69.01
		c5.54,1.35,11.09,1.32,16.64,0.02c0.03-19.67,0.08-39.34,0.07-59.02c0-7.7,0.11-15.36,1.49-22.99
		c4.51-24.89,17.44-44.16,38.68-57.72c17.82-11.37,37.38-15.05,58.24-11.94c21.73,3.24,39.45,13.68,53.23,30.59
		c13.52,16.6,19.29,35.95,19.14,57.27C290.45,145.09,290.62,166.36,290.64,187.62z M205.22,205.2c-35.91,0-71.82,0-107.73,0
		c-8.45,0-11.34,2.82-11.34,11.14c-0.01,49.48-0.01,98.96,0.01,148.44c0,2.64-0.09,5.29,0.61,7.92
		c3.45,12.87,13.02,19.82,27.62,19.82c60.51,0.02,121.03,0.01,181.54,0.01c3.19,0,6.34-0.31,9.46-1.05
		c9.6-2.3,19.05-11.86,18.96-26.64c-0.29-49.34-0.11-98.69-0.11-148.04c0-8.87-2.75-11.59-11.69-11.6
		C276.78,205.2,241,205.2,205.22,205.2z M204.86,187.96c21.54,0,43.08-0.07,64.63,0.08c3.03,0.02,3.7-0.77,3.67-3.72
		c-0.16-15.96,0.04-31.92-0.12-47.87c-0.09-8.62,0.45-17.22-0.66-25.86c-4.7-36.74-40.33-63.58-77.16-57.77
		c-34.1,5.38-57.96,34.24-57.9,67.38c0.04,21.41,0.09,42.82-0.08,64.23c-0.03,3.19,1.01,3.6,3.8,3.58
		C162.3,187.91,183.58,187.96,204.86,187.96z"/>
	<path d="M205.22,205.2c35.78,0,71.55,0,107.33,0c8.94,0,11.69,2.72,11.69,11.6c0,49.35-0.18,98.69,0.11,148.04
		c0.09,14.78-9.36,24.34-18.96,26.64c-3.11,0.75-6.27,1.05-9.46,1.05c-60.51,0-121.03,0.01-181.54-0.01
		c-14.6,0-24.17-6.96-27.62-19.82c-0.7-2.62-0.61-5.27-0.61-7.92c-0.02-49.48-0.02-98.96-0.01-148.44c0-8.32,2.89-11.14,11.34-11.14
		C133.41,205.2,169.32,205.2,205.22,205.2z M205.28,341.65c7.71,0,15.42,0.02,23.12-0.01c8.82-0.03,12.58-5.13,9.85-13.44
		c-2.96-9.02-6-18.02-9.05-27.01c-0.63-1.86-0.7-3.21,0.87-4.9c7.24-7.81,10.17-17,8.77-27.71c-2.55-19.54-20.95-32.85-40.61-28.77
		c-25.98,5.4-35.93,36.85-18.09,56.3c1.6,1.75,1.74,3.19,1.04,5.22c-3.09,8.98-5.9,18.06-9.17,26.98
		c-3.19,8.71,3.15,13.64,9.75,13.4C189.59,341.43,197.44,341.65,205.28,341.65z"/>
	<path d="M103.12,187.6c-0.02-23-0.47-46.02,0.06-69.01c0.66-28.16,11.05-52.52,31.44-72.13c15.83-15.23,34.76-24.53,56.71-27.31
		c28.8-3.64,54.88,3.14,77.55,21.3c20.5,16.42,32.9,37.83,36.96,63.92c1.29,8.29,1.58,16.62,1.54,24.99
		c-0.08,19.41-0.07,38.83-0.1,58.24c-5.55,0.01-11.09,0.01-16.64,0.02c-0.03-21.27-0.19-42.53-0.04-63.8
		c0.15-21.33-5.62-40.67-19.14-57.27c-13.77-16.91-31.5-27.35-53.23-30.59c-20.85-3.11-40.41,0.57-58.24,11.94
		c-21.24,13.56-34.17,32.83-38.68,57.72c-1.38,7.63-1.5,15.29-1.49,22.99c0.01,19.67-0.04,39.34-0.07,59.02
		C114.21,187.62,108.66,187.61,103.12,187.6z"/>
	<path d="M103.12,187.6c5.55,0.01,11.09,0.01,16.64,0.02C114.21,188.92,108.66,188.95,103.12,187.6z"/>
	<path d="M290.64,187.62c5.55-0.01,11.09-0.01,16.64-0.02C301.74,188.95,296.19,188.92,290.64,187.62z"/>
	<path class="st1" d="M205.28,341.65c-7.84,0-15.69-0.22-23.52,0.07c-6.6,0.24-12.94-4.7-9.75-13.4c3.27-8.91,6.08-18,9.17-26.98
		c0.7-2.04,0.56-3.47-1.04-5.22c-17.83-19.45-7.89-50.9,18.09-56.3c19.67-4.08,38.06,9.23,40.61,28.77
		c1.4,10.71-1.53,19.9-8.77,27.71c-1.57,1.69-1.5,3.05-0.87,4.9c3.06,8.99,6.09,17.99,9.05,27.01c2.73,8.32-1.03,13.41-9.85,13.44
		C220.7,341.67,212.99,341.65,205.28,341.65z M191.74,324.17c8.31,0,16.14-0.1,23.95,0.05c2.61,0.05,2.83-0.84,2.09-2.96
		c-2.3-6.64-4.51-13.31-6.74-19.97c-2.46-7.37-1.69-9.97,4.36-14.81c7.9-6.33,8.92-17.49,2.24-24.56
		c-7.07-7.48-18.05-7.4-25.05,0.17c-6.47,7-5.42,18.17,2.29,24.31c6.26,4.98,6.94,7.37,4.36,15.13
		C196.78,308.93,194.34,316.34,191.74,324.17z"/>
	<path class="st1" d="M191.74,324.17c2.6-7.84,5.04-15.24,7.5-22.64c2.58-7.76,1.9-10.15-4.36-15.13
		c-7.71-6.14-8.76-17.31-2.29-24.31c7-7.57,17.98-7.64,25.05-0.17c6.68,7.07,5.66,18.23-2.24,24.56c-6.05,4.84-6.82,7.44-4.36,14.81
		c2.23,6.66,4.44,13.33,6.74,19.97c0.74,2.13,0.52,3.01-2.09,2.96C207.88,324.08,200.06,324.17,191.74,324.17z"/>
</g>
</svg>
