<?xml version="1.0" encoding="UTF-8"?>
<svg id="Layer_1" data-name="Layer 1" xmlns="http://www.w3.org/2000/svg" viewBox="0 0 272.94 370.77">
  <defs>
    <style>
      .cls-1 {
        fill: #fcc014;
      }

      .cls-1, .cls-2, .cls-3, .cls-4 {
        stroke-width: 0px;
      }

      .cls-2 {
        fill: #231f20;
      }

      .cls-3 {
        fill: #fff;
      }

      .cls-4 {
        fill: #58542f;
      }
    </style>
  </defs>
  <g id="hasp">
    <path class="cls-2" d="M255.97,185.42c.03-19.02.06-38.04,0-57.06-.03-9.95-.39-19.86-2.1-29.72-4.36-25.2-15.79-46.72-33.95-64.52C201.75,16.31,179.99,5.41,154.69,1.49,135.15-1.53,116.08-.04,97.55,6.58,62.77,19.01,38.63,42.67,24.94,76.95c-5.77,14.44-7.83,29.61-7.95,45.03-.17,21.15-.06,42.29-.03,63.44,0,.91,0,1.7-.23,2.41,0,.02-.02.04-.02.07l239.71.42c-.41-.83-.44-1.78-.44-2.9ZM200.75,187.27c-21.55-.15-43.09-.08-64.63-.08s-42.56-.05-63.82.05c-2.79.02-3.83-.39-3.8-3.58.17-21.41.12-42.82.08-64.23-.06-33.14,23.8-62,57.9-67.38,36.83-5.81,72.46,21.03,77.16,57.77,1.11,8.64.57,17.24.66,25.86.16,15.95-.04,31.91.12,47.87.03,2.95-.64,3.74-3.67,3.72Z"/>
    <path class="cls-2" d="M34.38,186.83c-.02-23-.47-46.02.06-69.01.66-28.16,11.05-52.52,31.44-72.13,15.83-15.23,34.76-24.53,56.71-27.31,28.8-3.64,54.88,3.14,77.55,21.3,20.5,16.42,32.9,37.83,36.96,63.92,1.29,8.29,1.58,16.62,1.54,24.99-.08,19.41-.07,38.83-.1,58.24-5.55,0-11.09,0-16.64.02-.03-21.27-.19-42.53-.04-63.8.15-21.33-5.62-40.67-19.14-57.27-13.77-16.91-31.5-27.35-53.23-30.59-20.85-3.11-40.41.57-58.24,11.94-21.24,13.56-34.17,32.83-38.68,57.72-1.38,7.63-1.5,15.29-1.49,22.99.01,19.67-.04,39.34-.07,59.02-5.54-.01-11.09-.02-16.63-.03Z"/>
    <path class="cls-4" d="M34.38,186.83c5.55,0,11.09,0,16.64.02-5.55,1.3-11.1,1.33-16.64-.02Z"/>
    <path class="cls-4" d="M221.9,186.85c5.55,0,11.09,0,16.64-.02-5.54,1.35-11.09,1.32-16.64.02Z"/>
  </g>
  <path class="cls-2" d="M272.82,175.47c-.03-10.47-4.77-18.68-14.42-23.37-1.07-.52-1.65-1.11-1.99-1.78l-239.71-.42c-.28.85-.88,1.57-2.17,2.2C4.74,156.88.11,165.23.09,175.87c-.11,50.94-.13,101.88.01,152.82.05,18.25,12.36,34.53,29.63,40.18,1.8.59,3.9.35,5.36,1.9,67.05,0,134.09,0,201.16-.02.24-.25.47-.69.74-.72,17.94-1.79,35.74-19.36,35.82-40.95.19-51.2.16-102.41.01-153.61Z"/>
  <path class="cls-2" d="M136.48,166.43h107.33c8.94,0,11.69,2.72,11.69,11.6,0,49.35-.18,98.69.11,148.04.09,14.78-9.36,24.34-18.96,26.64-3.11.75-6.27,1.05-9.46,1.05-60.51,0-121.03.01-181.54-.01-14.6,0-24.17-6.96-27.62-19.82-.7-2.62-.61-5.27-.61-7.92-.02-49.48-.02-98.96-.01-148.44,0-8.32,2.89-11.14,11.34-11.14,35.92,0,71.83,0,107.73,0Z"/>
  <path class="cls-1" d="M136.54,302.88c7.71,0,15.42.02,23.12-.01,8.82-.03,12.58-5.13,9.85-13.44-2.96-9.02-6-18.02-9.05-27.01-.63-1.86-.7-3.21.87-4.9,7.24-7.81,10.17-17,8.77-27.71-2.55-19.54-20.95-32.85-40.61-28.77-25.98,5.4-35.93,36.85-18.09,56.3,1.6,1.75,1.74,3.19,1.04,5.22-3.09,8.98-5.9,18.06-9.17,26.98-3.19,8.71,3.15,13.64,9.75,13.4,7.83-.28,15.68-.06,23.52-.06Z"/>
  <path class="cls-3" d="M136.54,302.88c-7.84,0-15.69-.22-23.52.07-6.6.24-12.94-4.7-9.75-13.4,3.27-8.91,6.08-18,9.17-26.98.7-2.04.56-3.47-1.04-5.22-17.83-19.45-7.89-50.9,18.09-56.3,19.67-4.08,38.06,9.23,40.61,28.77,1.4,10.71-1.53,19.9-8.77,27.71-1.57,1.69-1.5,3.05-.87,4.9,3.06,8.99,6.09,17.99,9.05,27.01,2.73,8.32-1.03,13.41-9.85,13.44-7.7.02-15.41,0-23.12,0Z"/>
  <path class="cls-3" d="M123,285.4c8.31,0,16.14-.1,23.95.05,2.61.05,2.83-.84,2.09-2.96-2.3-6.64-4.51-13.31-6.74-19.97-2.46-7.37-1.69-9.97,4.36-14.81,7.9-6.33,8.92-17.49,2.24-24.56-7.07-7.48-18.05-7.4-25.05.17-6.47,7-5.42,18.17,2.29,24.31,6.26,4.98,6.94,7.37,4.36,15.13-2.46,7.4-4.9,14.81-7.5,22.64Z"/>
  <path class="cls-3" d="M123,285.4c2.6-7.84,5.04-15.24,7.5-22.64,2.58-7.76,1.9-10.15-4.36-15.13-7.71-6.14-8.76-17.31-2.29-24.31,7-7.57,17.98-7.64,25.05-.17,6.68,7.07,5.66,18.23-2.24,24.56-6.05,4.84-6.82,7.44-4.36,14.81,2.23,6.66,4.44,13.33,6.74,19.97.74,2.13.52,3.01-2.09,2.96-7.81-.14-15.63-.05-23.95-.05Z"/>
</svg>