<?xml version="1.0" encoding="utf-8"?>
<!-- Generator: Adobe Illustrator 28.3.0, SVG Export Plug-In . SVG Version: 6.00 Build 0)  -->
<svg version="1.1" id="Layer_1" xmlns="http://www.w3.org/2000/svg" xmlns:xlink="http://www.w3.org/1999/xlink" x="0px" y="0px"
	 viewBox="0 0 409.6 371" style="enable-background:new 0 0 409.6 371;" xml:space="preserve">
<style type="text/css">
	.st0{fill:#231F20;}
	.st1{fill:#465B65;}
	.st2{fill:#58542F;}
	.st3{fill:#FCC014;}
	.st4{fill:#070703;}
</style>
<g>
	<g id="hasp">
		<g>
			<g>
				<path class="st0" d="M324.7,185.5c0-19,0.1-38,0-57.1c0-9.9-0.4-19.9-2.1-29.7c-4.4-25.2-15.8-46.7-34-64.5
					c-18.2-17.8-39.9-28.7-65.2-32.6c-19.5-3-38.6-1.5-57.1,5.1C131.5,19.1,107.4,42.8,93.7,77c-5.8,14.4-7.8,29.6-8,45
					c-0.2,21.1-0.1,42.3,0,63.4c0,0.9,0,1.7-0.2,2.4c0,0,0,0,0,0.1l239.7,0.4C324.7,187.6,324.7,186.6,324.7,185.5z M269.5,187.4
					c-21.5-0.2-43.1-0.1-64.6-0.1c-21.3,0-42.6,0-63.8,0.1c-2.8,0-3.8-0.4-3.8-3.6c0.2-21.4,0.1-42.8,0.1-64.2
					c-0.1-33.1,23.8-62,57.9-67.4c36.8-5.8,72.5,21,77.2,57.8c1.1,8.6,0.6,17.2,0.7,25.9c0.2,16,0,31.9,0.1,47.9
					C273.2,186.6,272.5,187.4,269.5,187.4z"/>
			</g>
		</g>
		<path class="st1" d="M103.1,186.9c0-23-0.5-46,0.1-69c0.7-28.2,11.1-52.5,31.4-72.1c15.8-15.2,34.8-24.5,56.7-27.3
			c28.8-3.6,54.9,3.1,77.6,21.3c20.5,16.4,32.9,37.8,37,63.9c1.3,8.3,1.6,16.6,1.5,25c-0.1,19.4-0.1,38.8-0.1,58.2
			c-5.5,0-11.1,0-16.6,0c0-21.3-0.2-42.5,0-63.8c0.1-21.3-5.6-40.7-19.1-57.3C257.7,49,240,38.5,218.2,35.3
			c-20.9-3.1-40.4,0.6-58.2,11.9c-21.2,13.6-34.2,32.8-38.7,57.7c-1.4,7.6-1.5,15.3-1.5,23c0,19.7,0,39.3-0.1,59
			C114.2,186.9,108.7,186.9,103.1,186.9z"/>
		<path class="st2" d="M103.1,186.9c5.6,0,11.1,0,16.6,0C114.2,188.2,108.7,188.3,103.1,186.9z"/>
		<path class="st2" d="M290.6,186.9c5.5,0,11.1,0,16.6,0C301.7,188.3,296.2,188.2,290.6,186.9z"/>
	</g>
	<g>
		<g>
			<path class="st0" d="M341.6,175.6c0-10.5-4.8-18.7-14.4-23.4c-1.1-0.5-1.6-1.1-2-1.8L85.4,150c-0.3,0.9-0.9,1.6-2.2,2.2
				c-9.8,4.8-14.4,13.1-14.5,23.8c-0.1,50.9-0.1,101.9,0,152.8c0,18.2,12.4,34.5,29.6,40.2c1.8,0.6,3.9,0.4,5.4,1.9
				c67,0,134.1,0,201.2,0c0.2-0.2,0.5-0.7,0.7-0.7c17.9-1.8,35.7-19.4,35.8-41C341.7,278,341.7,226.8,341.6,175.6z"/>
		</g>
	</g>
	<path class="st3" d="M205.2,166.5c35.8,0,71.6,0,107.3,0c8.9,0,11.7,2.7,11.7,11.6c0,49.3-0.2,98.7,0.1,148
		c0.1,14.8-9.4,24.3-19,26.6c-3.1,0.8-6.3,1-9.5,1c-60.5,0-121,0-181.5,0c-14.6,0-24.2-7-27.6-19.8c-0.7-2.6-0.6-5.3-0.6-7.9
		c0-49.5,0-99,0-148.4c0-8.3,2.9-11.1,11.3-11.1C133.4,166.5,169.3,166.5,205.2,166.5z"/>
	<path class="st3" d="M205.3,303c7.7,0,15.4,0,23.1,0c8.8,0,12.6-5.1,9.9-13.4c-3-9-6-18-9.1-27c-0.6-1.9-0.7-3.2,0.9-4.9
		c7.2-7.8,10.2-17,8.8-27.7c-2.6-19.5-20.9-32.9-40.6-28.8c-26,5.4-35.9,36.8-18.1,56.3c1.6,1.8,1.7,3.2,1,5.2
		c-3.1,9-5.9,18.1-9.2,27c-3.2,8.7,3.1,13.6,9.8,13.4C189.6,302.7,197.4,303,205.3,303z"/>
	<path class="st4" d="M205.3,303c-7.8,0-15.7-0.2-23.5,0.1c-6.6,0.2-12.9-4.7-9.8-13.4c3.3-8.9,6.1-18,9.2-27c0.7-2,0.6-3.5-1-5.2
		c-17.8-19.5-7.9-50.9,18.1-56.3c19.7-4.1,38.1,9.2,40.6,28.8c1.4,10.7-1.5,19.9-8.8,27.7c-1.6,1.7-1.5,3-0.9,4.9
		c3.1,9,6.1,18,9.1,27c2.7,8.3-1,13.4-9.9,13.4C220.7,303,213,303,205.3,303z"/>
	<path class="st4" d="M191.7,285.5c8.3,0,16.1-0.1,23.9,0c2.6,0,2.8-0.8,2.1-3c-2.3-6.6-4.5-13.3-6.7-20c-2.5-7.4-1.7-10,4.4-14.8
		c7.9-6.3,8.9-17.5,2.2-24.6c-7.1-7.5-18.1-7.4-25.1,0.2c-6.5,7-5.4,18.2,2.3,24.3c6.3,5,6.9,7.4,4.4,15.1
		C196.8,270.2,194.3,277.7,191.7,285.5z"/>
	<path class="st1" d="M191.7,285.5c2.6-7.8,5-15.2,7.5-22.6c2.6-7.8,1.9-10.1-4.4-15.1c-7.7-6.1-8.8-17.3-2.3-24.3
		c7-7.6,18-7.6,25.1-0.2c6.7,7.1,5.7,18.2-2.2,24.6c-6.1,4.8-6.8,7.4-4.4,14.8c2.2,6.7,4.4,13.3,6.7,20c0.7,2.1,0.5,3-2.1,3
		C207.9,285.4,200.1,285.5,191.7,285.5z"/>
</g>
</svg>
