<?xml version="1.0" encoding="utf-8"?>
<!-- Generator: Adobe Illustrator 28.3.0, SVG Export Plug-In . SVG Version: 6.00 Build 0)  -->
<svg version="1.1" id="Layer_1" xmlns="http://www.w3.org/2000/svg" xmlns:xlink="http://www.w3.org/1999/xlink" x="0px" y="0px"
	 viewBox="0 0 256 256" style="enable-background:new 0 0 256 256;" xml:space="preserve">
<style type="text/css">
	.st0{display:none;}
	.st1{fill:#FFFFFF;}
	.st2{fill:none;stroke:#FFFFFF;stroke-width:14;stroke-miterlimit:10;}
</style>
<g transform="translate(0.000000,256.000000) scale(0.100000,-0.100000)">
	<g id="XMLID_00000042715966022970369640000011883274795944611725_">
		<g>
			<path d="M2547,1323c5-207-1-264-43-410c-93-321-330-606-633-762c-192-99-366-141-580-141c-271,0-489,64-707,208
				C307,401,114,683,39,1015c-32,144-32,387,0,530c59,259,168,455,355,641c181,180,417,302,671,349c118,21,392,14,506-13
				c241-59,438-170,615-346c161-162,267-344,330-566C2539,1526,2543,1492,2547,1323z M2520,1087c20,143,9,384-23,503
				c-57,211-164,403-305,546c-129,132-182,172-323,248c-97,52-195,88-319,117c-78,18-347,35-390,24c-8-2-49-9-90-15
				c-382-63-731-323-905-675C6,1511-8,1139,127,810c65-158,144-278,264-400C623,173,907,47,1242,33c134-6,226,4,355,38
				C2081,199,2453,609,2520,1087z"/>
			<path d="M2497,1590c32-119,43-360,23-503c-67-478-439-888-923-1016c-129-34-221-44-355-38C907,47,623,173,391,410
				C271,532,192,652,127,810C-8,1139,6,1511,165,1835c174,352,523,612,905,675c41,6,82,13,90,15c43,11,312-6,390-24
				c124-29,222-65,319-117c141-76,194-116,323-248C2333,1993,2440,1801,2497,1590z"/>
		</g>
		<g>
		</g>
	</g>
	<path class="st0" d="M1125,2319c-386-69-685-315-819-673c-57-152-69-225-63-400c5-159,14-206,67-343c114-297,354-523,660-623
		c116-38,288-53,439-39c362,34,708,297,844,639c65,166,72,202,72,390c0,182-9,240-56,368c-111,304-366,548-675,645
		C1463,2324,1248,2341,1125,2319z M1565,2266c350-104,602-360,711-722c24-82,27-104,27-264c0-161-2-182-27-265
		c-84-284-258-503-506-638c-36-20-114-53-175-74l-110-38h-190c-206,0-239,5-393,65c-162,62-363,222-459,365
		c-141,209-198,438-174,695c39,413,344,770,752,879c111,30,111,30,289,26C1454,2293,1486,2289,1565,2266z"/>
	<g id="XMLID_00000120530701650380279910000005908051279270219964_">
		<g>
			<path class="st1" d="M1950,1263v-183h-235h-235l-13.3,1.6c0.8,6.1,1.6,9.7,2.3,10.4c6,7,178,15,364,17l87,1v150v150h-213
				c-155,0-218,3-230,13c-3.4,2.2-6.3,7.1-8.9,15.2l11.9,0.8l235,3l235,3V1263z"/>
			<path class="st1" d="M1920,1260v-150l-87-1c-186-2-358-10-364-17c-0.7-0.7-1.5-4.3-2.3-10.4c-4-29.5-9.4-117.5-12.7-218.6l-7-223
				h-153h-154v219c0,167.1-1.5,210.2-12,226.4c-1.4,2.3-3.1,4.1-5,5.6c-12,11-68,15-235,17l-218,4v149v149h213c176,0,216,3,235,16
				c4.1,2.8,7.5,5.2,10.2,8.7c11.8,15.2,11.8,50.6,11.8,225.3v219l58,4c31,2,101,4,155,5l97,2l1-102c1.6-217.8,5.9-314.7,17.1-349.8
				c2.6-8.1,5.5-13,8.9-15.2c12-10,75-13,230-13h213V1260z"/>
			<path class="st1" d="M1480,845V610h-182h-183l3,235l3,235l7,5.4c10.5-16.2,12-59.3,12-226.4V640h154h153l7,223
				c3.3,101.1,8.7,189.1,12.7,218.6l13.3-1.6V845z"/>
			<path class="st1" d="M1478,1677l2-238l-11.9-0.8c-11.2,35.1-15.5,132-17.1,349.8l-1,102l-97-2c-54-1-124-3-155-5l-58-4v-219
				c0-174.7,0-210.1-11.8-225.3l-7.2,5.3l-3,235l-3,235l180,2l180,3L1478,1677z"/>
			<path class="st1" d="M1121,1440l7.2-5.3c-2.7-3.5-6.1-5.9-10.2-8.7c-19-13-59-16-235-16H670v-149v-149l218-4c167-2,223-6,235-17
				c1.9-1.5,3.6-3.3,5-5.6l-7-5.4H883H645v180v180h238H1121z"/>
		</g>
		<g>
			<polygon class="st2" points="1480,1439 1478,1677 1475,1915 1295,1912 1115,1910 1118,1675 1121,1440 883,1440 645,1440 
				645,1260 645,1080 883,1080 1121,1080 1118,845 1115,610 1298,610 1480,610 1480,845 1480,1080 1715,1080 1950,1080 1950,1263 
				1950,1445 1715,1442 			"/>
			<path class="st2" d="M1128.2,1434.7c11.8,15.2,11.8,50.6,11.8,225.3v219l58,4c31,2,101,4,155,5l97,2l1-102
				c1.6-217.8,5.9-314.7,17.1-349.8c2.6-8.1,5.5-13,8.9-15.2c12-10,75-13,230-13h213v-150v-150l-87-1c-186-2-358-10-364-17
				c-0.7-0.7-1.5-4.3-2.3-10.4c-4-29.5-9.4-117.5-12.7-218.6l-7-223h-153h-154v219c0,167.1-1.5,210.2-12,226.4
				c-1.4,2.3-3.1,4.1-5,5.6c-12,11-68,15-235,17l-218,4v149v149h213c176,0,216,3,235,16C1122.1,1428.8,1125.5,1431.2,1128.2,1434.7z
				"/>
		</g>
	</g>
</g>
</svg>
