<?xml version="1.0" encoding="UTF-8"?>
<svg id="Layer_1" data-name="Layer 1" xmlns="http://www.w3.org/2000/svg" viewBox="0 0 253.85 254.23">
  <defs>
    <style>
      .cls-1 {
        fill: #000;
      }

      .cls-1, .cls-2 {
        stroke-width: 0px;
      }

      .cls-3 {
        fill: none;
        stroke: #fff;
        stroke-miterlimit: 10;
        stroke-width: .5px;
      }

      .cls-2 {
        fill: #fff;
      }
    </style>
  </defs>
  <g>
    <path class="cls-1" d="M253.45,122.68c.5,20.7-.1,26.4-4.3,41-9.3,32.1-33,60.6-63.3,76.2-19.2,9.9-36.6,14.1-58,14.1-27.1,0-48.9-6.4-70.7-20.8-27.7-18.3-47-46.5-54.5-79.7-3.2-14.4-3.2-38.7,0-53,5.9-25.9,16.8-45.5,35.5-64.1C56.25,18.38,79.85,6.18,105.25,1.48c11.8-2.1,39.2-1.4,50.6,1.3,24.1,5.9,43.8,17,61.5,34.6,16.1,16.2,26.7,34.4,33,56.6,2.3,8.4,2.7,11.8,3.1,28.7ZM250.75,146.28c2-14.3.9-38.4-2.3-50.3-5.7-21.1-16.4-40.3-30.5-54.6-12.9-13.2-18.2-17.2-32.3-24.8-9.7-5.2-19.5-8.8-31.9-11.7-7.8-1.8-34.7-3.5-39-2.4-.8.2-4.9.9-9,1.5C67.55,10.28,32.65,36.28,15.25,71.48-.65,103.88-2.05,141.08,11.45,173.98c6.5,15.8,14.4,27.8,26.4,40,23.2,23.7,51.6,36.3,85.1,37.7,13.4.6,22.6-.4,35.5-3.8,48.4-12.8,85.6-53.8,92.3-101.6Z"/>
    <path class="cls-1" d="M248.45,95.98c3.2,11.9,4.3,36,2.3,50.3-6.7,47.8-43.9,88.8-92.3,101.6-12.9,3.4-22.1,4.4-35.5,3.8-33.5-1.4-61.9-14-85.1-37.7-12-12.2-19.9-24.2-26.4-40C-2.05,141.08-.65,103.88,15.25,71.48,32.65,36.28,67.55,10.28,105.75,3.98c4.1-.6,8.2-1.3,9-1.5,4.3-1.1,31.2.6,39,2.4,12.4,2.9,22.2,6.5,31.9,11.7,14.1,7.6,19.4,11.6,32.3,24.8,14.1,14.3,24.8,33.5,30.5,54.6Z"/>
  </g>
  <g>
    <g>
      <path class="cls-2" d="M226.37,128.65v27.45h-70.5l-2-.24c.12-.91.24-1.45.34-1.56.9-1.05,26.7-2.25,54.6-2.55l13.05-.15v-45h-31.95c-23.25,0-32.7-.45-34.5-1.95-.51-.33-.94-1.07-1.34-2.28l1.79-.12,35.25-.45,35.25-.45v27.3Z"/>
      <path class="cls-2" d="M221.87,129.1v22.5l-13.05.15c-27.9.3-53.7,1.5-54.6,2.55-.1.1-.22.65-.34,1.56-.6,4.43-1.41,17.62-1.91,32.79l-1.05,33.45h-46.05v-32.85c0-25.07-.23-31.53-1.8-33.96-.21-.34-.47-.61-.75-.84-1.8-1.65-10.2-2.25-35.25-2.55l-32.7-.6v-44.7h31.95c26.4,0,32.4-.45,35.25-2.4.61-.42,1.12-.78,1.53-1.31,1.77-2.28,1.77-7.59,1.77-33.79v-32.85l8.7-.6c4.65-.3,15.15-.6,23.25-.75l14.55-.3.15,15.3c.24,32.67.89,47.2,2.56,52.47.39,1.22.83,1.95,1.34,2.28,1.8,1.5,11.25,1.95,34.5,1.95h31.95v22.5Z"/>
      <path class="cls-2" d="M155.87,191.35v35.25h-54.75l.45-35.25.45-35.25,1.05-.81c1.58,2.43,1.8,8.9,1.8,33.96v32.85h46.05l1.05-33.45c.5-15.17,1.31-28.36,1.91-32.79l2,.24v35.25Z"/>
      <path class="cls-2" d="M155.57,66.55l.3,35.7-1.79.12c-1.68-5.26-2.32-19.8-2.56-52.47l-.15-15.3-14.55.3c-8.1.15-18.6.45-23.25.75l-8.7.6v32.85c0,26.2,0,31.51-1.77,33.79l-1.08-.79-.45-35.25-.45-35.25,27-.3,27-.45.45,35.7Z"/>
      <path class="cls-2" d="M102.02,102.1l1.08.79c-.41.53-.92.89-1.53,1.31-2.85,1.95-8.85,2.4-35.25,2.4h-31.95v44.7l32.7.6c25.05.3,33.45.9,35.25,2.55.28.23.54.5.75.84l-1.05.81H30.62v-54h71.4Z"/>
    </g>
    <g>
      <polygon class="cls-3" points="155.87 102.25 155.57 66.55 155.12 30.85 128.12 31.3 101.12 31.6 101.57 66.85 102.02 102.1 66.32 102.1 30.62 102.1 30.62 129.1 30.62 156.1 66.32 156.1 102.02 156.1 101.57 191.35 101.12 226.6 128.57 226.6 155.87 226.6 155.87 191.35 155.87 156.1 191.12 156.1 226.37 156.1 226.37 128.65 226.37 101.35 191.12 101.8 155.87 102.25"/>
      <path class="cls-3" d="M103.1,102.9c1.77-2.28,1.77-7.59,1.77-33.79v-32.85l8.7-.6c4.65-.3,15.15-.6,23.25-.75l14.55-.3.15,15.3c.24,32.67.89,47.2,2.56,52.47.39,1.22.83,1.95,1.34,2.28,1.8,1.5,11.25,1.95,34.5,1.95h31.95v45l-13.05.15c-27.9.3-53.7,1.5-54.6,2.55-.1.1-.22.65-.34,1.56-.6,4.43-1.41,17.62-1.91,32.79l-1.05,33.45h-46.05v-32.85c0-25.07-.23-31.53-1.8-33.96-.21-.34-.47-.61-.75-.84-1.8-1.65-10.2-2.25-35.25-2.55l-32.7-.6v-44.7h31.95c26.4,0,32.4-.45,35.25-2.4.61-.42,1.12-.78,1.53-1.31Z"/>
    </g>
  </g>
</svg>