<?xml version="1.0" encoding="UTF-8"?>
<svg id="Layer_1" data-name="Layer 1" xmlns="http://www.w3.org/2000/svg" viewBox="0 0 253.85 254.23">
  <defs>
    <style>
      .cls-1 {
        fill: #000;
      }

      .cls-1, .cls-2 {
        stroke-width: 0px;
      }

      .cls-3 {
        fill: none;
        stroke: #fff;
        stroke-miterlimit: 10;
        stroke-width: 14px;
      }

      .cls-2 {
        fill: #fff;
      }
    </style>
  </defs>
  <g>
    <path class="cls-1" d="M253.45,122.68c.5,20.7-.1,26.4-4.3,41-9.3,32.1-33,60.6-63.3,76.2-19.2,9.9-36.6,14.1-58,14.1-27.1,0-48.9-6.4-70.7-20.8-27.7-18.3-47-46.5-54.5-79.7-3.2-14.4-3.2-38.7,0-53,5.9-25.9,16.8-45.5,35.5-64.1C56.25,18.38,79.85,6.18,105.25,1.48c11.8-2.1,39.2-1.4,50.6,1.3,24.1,5.9,43.8,17,61.5,34.6,16.1,16.2,26.7,34.4,33,56.6,2.3,8.4,2.7,11.8,3.1,28.7ZM250.75,146.28c2-14.3.9-38.4-2.3-50.3-5.7-21.1-16.4-40.3-30.5-54.6-12.9-13.2-18.2-17.2-32.3-24.8-9.7-5.2-19.5-8.8-31.9-11.7-7.8-1.8-34.7-3.5-39-2.4-.8.2-4.9.9-9,1.5C67.55,10.28,32.65,36.28,15.25,71.48-.65,103.88-2.05,141.08,11.45,173.98c6.5,15.8,14.4,27.8,26.4,40,23.2,23.7,51.6,36.3,85.1,37.7,13.4.6,22.6-.4,35.5-3.8,48.4-12.8,85.6-53.8,92.3-101.6Z"/>
    <path class="cls-1" d="M248.45,95.98c3.2,11.9,4.3,36,2.3,50.3-6.7,47.8-43.9,88.8-92.3,101.6-12.9,3.4-22.1,4.4-35.5,3.8-33.5-1.4-61.9-14-85.1-37.7-12-12.2-19.9-24.2-26.4-40C-2.05,141.08-.65,103.88,15.25,71.48,32.65,36.28,67.55,10.28,105.75,3.98c4.1-.6,8.2-1.3,9-1.5,4.3-1.1,31.2.6,39,2.4,12.4,2.9,22.2,6.5,31.9,11.7,14.1,7.6,19.4,11.6,32.3,24.8,14.1,14.3,24.8,33.5,30.5,54.6Z"/>
  </g>
  <g>
    <g>
      <path class="cls-2" d="M193.75,128.68v18.3h-47l-1.33-.16c.08-.61.16-.97.23-1.04.6-.7,17.8-1.5,36.4-1.7l8.7-.1v-30h-21.3c-15.5,0-21.8-.3-23-1.3-.34-.22-.63-.71-.89-1.52l1.19-.08,23.5-.3,23.5-.3v18.2Z"/>
      <path class="cls-2" d="M190.75,128.98v15l-8.7.1c-18.6.2-35.8,1-36.4,1.7-.07.07-.15.43-.23,1.04-.4,2.95-.94,11.75-1.27,21.86l-.7,22.3h-30.7v-21.9c0-16.71-.15-21.02-1.2-22.64-.14-.23-.31-.41-.5-.56-1.2-1.1-6.8-1.5-23.5-1.7l-21.8-.4v-29.8h21.3c17.6,0,21.6-.3,23.5-1.6.41-.28.75-.52,1.02-.87,1.18-1.52,1.18-5.06,1.18-22.53v-21.9l5.8-.4c3.1-.2,10.1-.4,15.5-.5l9.7-.2.1,10.2c.16,21.78.59,31.47,1.71,34.98.26.81.55,1.3.89,1.52,1.2,1,7.5,1.3,23,1.3h21.3v15Z"/>
      <path class="cls-2" d="M146.75,170.48v23.5h-36.5l.3-23.5.3-23.5.7-.54c1.05,1.62,1.2,5.93,1.2,22.64v21.9h30.7l.7-22.3c.33-10.11.87-18.91,1.27-21.86l1.33.16v23.5Z"/>
      <path class="cls-2" d="M146.55,87.28l.2,23.8-1.19.08c-1.12-3.51-1.55-13.2-1.71-34.98l-.1-10.2-9.7.2c-5.4.1-12.4.3-15.5.5l-5.8.4v21.9c0,17.47,0,21.01-1.18,22.53l-.72-.53-.3-23.5-.3-23.5,18-.2,18-.3.3,23.8Z"/>
      <path class="cls-2" d="M110.85,110.98l.72.53c-.27.35-.61.59-1.02.87-1.9,1.3-5.9,1.6-23.5,1.6h-21.3v29.8l21.8.4c16.7.2,22.3.6,23.5,1.7.19.15.36.33.5.56l-.7.54h-47.6v-36h47.6Z"/>
    </g>
    <g>
      <polygon class="cls-3" points="146.75 111.08 146.55 87.28 146.25 63.48 128.25 63.78 110.25 63.98 110.55 87.48 110.85 110.98 87.05 110.98 63.25 110.98 63.25 128.98 63.25 146.98 87.05 146.98 110.85 146.98 110.55 170.48 110.25 193.98 128.55 193.98 146.75 193.98 146.75 170.48 146.75 146.98 170.25 146.98 193.75 146.98 193.75 128.68 193.75 110.48 170.25 110.78 146.75 111.08"/>
      <path class="cls-3" d="M111.57,111.51c1.18-1.52,1.18-5.06,1.18-22.53v-21.9l5.8-.4c3.1-.2,10.1-.4,15.5-.5l9.7-.2.1,10.2c.16,21.78.59,31.47,1.71,34.98.26.81.55,1.3.89,1.52,1.2,1,7.5,1.3,23,1.3h21.3v30l-8.7.1c-18.6.2-35.8,1-36.4,1.7-.07.07-.15.43-.23,1.04-.4,2.95-.94,11.75-1.27,21.86l-.7,22.3h-30.7v-21.9c0-16.71-.15-21.02-1.2-22.64-.14-.23-.31-.41-.5-.56-1.2-1.1-6.8-1.5-23.5-1.7l-21.8-.4v-29.8h21.3c17.6,0,21.6-.3,23.5-1.6.41-.28.75-.52,1.02-.87Z"/>
    </g>
  </g>
</svg>