<?xml version="1.0" encoding="UTF-8"?>
<svg version="1.1" xmlns="http://www.w3.org/2000/svg" width="141" height="151">
<path d="M0 0 C1.50367486 5.89821759 0.40091464 10.4742026 -2 16 C-6.49260859 22.52476216 -11.57053258 27.22149999 -19 30 C-19.90234375 30.3609375 -20.8046875 30.721875 -21.734375 31.09375 C-22.48203125 31.3928125 -23.2296875 31.691875 -24 32 C-23.11699219 32.20753906 -22.23398438 32.41507813 -21.32421875 32.62890625 C-6.79585244 36.35852983 3.8628755 43.26756722 11.8125 56.3125 C17.40888311 67.24057242 19.01203562 80.33673376 15.875 92.25 C12.29505484 102.36293265 5.73338794 110.68388119 -2 118 C-2.66 118 -3.32 118 -4 118 C-4 118.66 -4 119.32 -4 120 C-4.66 120 -5.32 120 -6 120 C-6 120.66 -6 121.32 -6 122 C-7.42578125 123.3671875 -7.42578125 123.3671875 -9.3125 124.875 C-11.97623289 127.06613512 -13.96130525 129.21020719 -16 132 C-16.66 132 -17.32 132 -18 132 C-18.25265625 132.59167969 -18.5053125 133.18335938 -18.765625 133.79296875 C-20.14922386 136.26680848 -21.52323546 137.57337963 -23.75 139.3125 C-24.40484375 139.84488281 -25.0596875 140.37726563 -25.734375 140.92578125 C-28.94722896 142.44911718 -30.59148789 141.95218068 -34 141 C-36.13491618 139.27803406 -37.90188238 137.66184341 -39.765625 135.6875 C-40.28509705 135.15858154 -40.80456909 134.62966309 -41.33978271 134.0847168 C-42.98877971 132.40126352 -44.61970566 130.70155351 -46.25 129 C-47.89795755 127.30207522 -49.54942826 125.60767746 -51.20306396 123.9152832 C-52.22884072 122.86310174 -53.2506736 121.80705797 -54.26812744 120.74682617 C-56.86104202 118.01980545 -56.86104202 118.01980545 -60 116 C-60 115.34 -60 114.68 -60 114 C-60.5775 113.77441406 -61.155 113.54882812 -61.75 113.31640625 C-68.71139129 109.24350891 -73.51555251 99.49642539 -76 92 C-79.15997825 77.78009789 -76.4785604 64.32546703 -69 52 C-60.02428194 39.35150452 -47.51445696 34.02654442 -32.58203125 31.3984375 C-31.72996094 31.26695313 -30.87789062 31.13546875 -30 31 C-30.33 30.67 -30.66 30.34 -31 30 C-32.06191003 22.2010542 -29.90188542 16.14345158 -25.45703125 9.796875 C-18.14838588 0.76559697 -11.36588285 -0.68195297 0 0 Z M-50.52734375 62.03125 C-55.19335812 68.26910475 -56.7483495 74.22531594 -56.44140625 82.0078125 C-55.27877882 89.88898608 -51.27014231 95.70191058 -45.09765625 100.59375 C-38.8165383 104.80455533 -32.49526308 105.99785651 -25 105 C-17.92440867 103.22316989 -12.21047201 100.05325154 -8 94 C-4.02059583 86.08842495 -2.71255562 79.10667129 -5.0625 70.5 C-7.51847688 63.8550906 -11.89712463 58.82504543 -18.1875 55.5625 C-29.58689584 50.38517765 -42.06394832 52.58746124 -50.52734375 62.03125 Z " fill="#F79F54" transform="translate(99,5)"/>
<path d="M0 0 C1.50367486 5.89821759 0.40091464 10.4742026 -2 16 C-6.1943293 22.09156142 -11.55501555 28.22554775 -19 30 C-23.02630017 30.28794748 -26.97273312 30.24163601 -31 30 C-31.57741906 20.90564981 -29.49695066 14.7889951 -23.75 7.6875 C-16.62877995 0.14472781 -10.14230336 -0.6085382 0 0 Z " fill="#A8C455" transform="translate(99,5)"/>
<path d="M0 0 C2.64 0 5.28 0 8 0 C7.34 0.66 6.68 1.32 6 2 C6.88300781 2.20753906 7.76601562 2.41507813 8.67578125 2.62890625 C23.20414756 6.35852983 33.8628755 13.26756722 41.8125 26.3125 C47.40888311 37.24057242 49.01203562 50.33673376 45.875 62.25 C43.21682228 69.86091451 39.05083238 76.66103026 33 82 C33 80.68 33 79.36 33 78 C33.66 78 34.32 78 35 78 C35 76.68 35 75.36 35 74 C35.66 74 36.32 74 37 74 C37.33 71.36 37.66 68.72 38 66 C38.99 65.67 39.98 65.34 41 65 C41.06058594 64.43152344 41.12117188 63.86304688 41.18359375 63.27734375 C41.57747019 59.64762086 41.99289857 56.04497571 42.5625 52.4375 C43.2179288 47.2877023 43.66901445 42.00704335 42 37 C41.34 37 40.68 37 40 37 C39.84144531 36.443125 39.68289062 35.88625 39.51953125 35.3125 C37.0584919 27.26313371 33.94377778 21.01495062 27 16 C26.505 15.01 26.505 15.01 26 14 C23.97399825 13.77488869 21.94540724 13.5559122 19.91015625 13.44140625 C18 13 18 13 16 10 C8.41538596 6.26153912 -1.77563 5.34525487 -9.82421875 7.89453125 C-12.15034789 8.80500099 -12.15034789 8.80500099 -13 11 C-13.99 10.67 -14.98 10.34 -16 10 C-18.0262871 10.94560065 -20.02379014 11.95377125 -22 13 C-23.03125 13.309375 -24.0625 13.61875 -25.125 13.9375 C-28.38143787 15.14096617 -29.88688075 16.26077135 -32 19 C-32.144375 19.78375 -32.28875 20.5675 -32.4375 21.375 C-33.28629319 25.33603487 -35.13799266 27.13799266 -38 30 C-39.32 30 -40.64 30 -42 30 C-42.66 31.32 -43.32 32.64 -44 34 C-42.68871891 24.90298743 -36.27497369 17.42072696 -29.37890625 11.71484375 C-20.66061885 5.43023264 -10.57623443 2.42922087 0 1 C0 0.67 0 0.34 0 0 Z M13 10 C15 11 15 11 15 11 Z " fill="#F3E37C" transform="translate(69,35)"/>
<path d="M0 0 C1.94733307 0.81097589 1.94733307 0.81097589 3.8828125 -0.44140625 C4.5428125 0.21859375 5.2028125 0.87859375 5.8828125 1.55859375 C5.5528125 2.21859375 5.2228125 2.87859375 4.8828125 3.55859375 C5.5428125 3.55859375 6.2028125 3.55859375 6.8828125 3.55859375 C7.3778125 5.53859375 7.3778125 5.53859375 7.8828125 7.55859375 C8.5428125 7.55859375 9.2028125 7.55859375 9.8828125 7.55859375 C9.8828125 8.21859375 9.8828125 8.87859375 9.8828125 9.55859375 C10.5428125 9.55859375 11.2028125 9.55859375 11.8828125 9.55859375 C12.70292562 11.1171113 13.51357463 12.68061091 14.3203125 14.24609375 C14.77277344 15.11621094 15.22523437 15.98632812 15.69140625 16.8828125 C16.84273178 19.46857639 17.44602003 21.77215903 17.8828125 24.55859375 C17.2228125 24.55859375 16.5628125 24.55859375 15.8828125 24.55859375 C15.5528125 30.16859375 15.2228125 35.77859375 14.8828125 41.55859375 C14.2228125 41.55859375 13.5628125 41.55859375 12.8828125 41.55859375 C12.79386719 42.45384766 12.79386719 42.45384766 12.703125 43.3671875 C10.99313786 47.93529599 5.03113953 49.50741266 0.8828125 51.55859375 C-0.7259375 52.48671875 -0.7259375 52.48671875 -2.3671875 53.43359375 C-9.00538232 55.4250522 -17.02449612 56.01981741 -23.64453125 53.65625 C-25.5546875 52.55859375 -25.5546875 52.55859375 -28.1171875 50.55859375 C-27.1271875 50.06359375 -27.1271875 50.06359375 -26.1171875 49.55859375 C-24.9621875 50.03296875 -23.8071875 50.50734375 -22.6171875 50.99609375 C-15.92859518 53.60392036 -9.693185 53.36783038 -2.9296875 51.05859375 C3.11111822 48.35162892 7.07651344 44.25505575 9.9765625 38.3203125 C12.76309455 30.85085852 12.68336527 24.19060821 9.91796875 16.73046875 C6.70494448 9.98918009 1.78771174 6.15841411 -5.1171875 3.55859375 C-13.34395092 1.14562574 -20.64686777 2.50397942 -28.1171875 6.55859375 C-30.66094791 8.42098977 -32.83080935 10.37162334 -35.1171875 12.55859375 C-33.91337302 10.06497804 -32.66290028 7.87716292 -31.1171875 5.55859375 C-31.1171875 4.89859375 -31.1171875 4.23859375 -31.1171875 3.55859375 C-20.28824181 -1.49982532 -11.49042417 -4.50408613 0 0 Z " fill="#FAE4AD" transform="translate(82.1171875,56.44140625)"/>
<path d="M0 0 C2.64 0 5.28 0 8 0 C7.34 0.66 6.68 1.32 6 2 C8.475 2.495 8.475 2.495 11 3 C11 3.66 11 4.32 11 5 C13.475 5.495 13.475 5.495 16 6 C16.495 7.485 16.495 7.485 17 9 C15 10 15 10 13.29296875 9.44140625 C12.59816406 9.15136719 11.90335938 8.86132812 11.1875 8.5625 C4.55499034 6.21908492 -3.08096728 5.76041645 -9.828125 7.89453125 C-12.15048476 8.80576123 -12.15048476 8.80576123 -13 11 C-13.99 10.67 -14.98 10.34 -16 10 C-18.0262871 10.94560065 -20.02379014 11.95377125 -22 13 C-23.03125 13.309375 -24.0625 13.61875 -25.125 13.9375 C-28.38143787 15.14096617 -29.88688075 16.26077135 -32 19 C-32.144375 19.78375 -32.28875 20.5675 -32.4375 21.375 C-33.28629319 25.33603487 -35.13799266 27.13799266 -38 30 C-39.32 30 -40.64 30 -42 30 C-42.66 31.32 -43.32 32.64 -44 34 C-42.68871891 24.90298743 -36.27497369 17.42072696 -29.37890625 11.71484375 C-20.66061885 5.43023264 -10.57623443 2.42922087 0 1 C0 0.67 0 0.34 0 0 Z M13 10 C15 11 15 11 15 11 Z " fill="#F0DB62" transform="translate(69,35)"/>
<path d="M0 0 C-0.75 7.75 -0.75 7.75 -3 10 C-5.36980013 12.95377498 -5.36980013 12.95377498 -5 17 C-5.31151288 19.33634657 -5.64159778 21.67038557 -6 24 C-5.34 24 -4.68 24 -4 24 C-4.33 26.31 -4.66 28.62 -5 31 C-4.34 31 -3.68 31 -3 31 C-3 31.66 -3 32.32 -3 33 C-2.34 33.33 -1.68 33.66 -1 34 C-0.855625 34.78375 -0.71125 35.5675 -0.5625 36.375 C-0.25375485 39.01312348 -0.25375485 39.01312348 1.4296875 40.37109375 C3.34846316 42.36146551 3.88690167 44.05696264 4.6875 46.6875 C5.06455078 47.89986328 5.06455078 47.89986328 5.44921875 49.13671875 C5.63097656 49.75160156 5.81273437 50.36648437 6 51 C2.69960461 50.4499341 0.58095517 49.67429808 -1.62890625 47.109375 C-8.99538404 36.25351299 -11.55529882 25.14325315 -9.55078125 12.0703125 C-9.07747981 9.70044854 -8.57049217 7.34818654 -8 5 C-7.34 5 -6.68 5 -6 5 C-5.814375 4.0409375 -5.814375 4.0409375 -5.625 3.0625 C-5.41875 2.381875 -5.2125 1.70125 -5 1 C-3 0 -3 0 0 0 Z " fill="#ED735A" transform="translate(32,64)"/>
<path d="M0 0 C5.47826087 0.60869565 5.47826087 0.60869565 7.625 2.21875 C9.38531357 4.49915622 9.71015247 6.36013385 10.1875 9.1875 C10.34605469 10.08855469 10.50460938 10.98960938 10.66796875 11.91796875 C10.77753906 12.60503906 10.88710937 13.29210938 11 14 C10.360625 14.28875 9.72125 14.5775 9.0625 14.875 C6.84793921 15.82823451 6.84793921 15.82823451 6 18 C2.9375 18.625 2.9375 18.625 0 19 C0 19.66 0 20.32 0 21 C-3.21451269 22.60725635 -6.43612536 22.05748185 -10 22 C-9.67 18.7 -9.34 15.4 -9 12 C-8.34 12 -7.68 12 -7 12 C-6.67 11.34 -6.34 10.68 -6 10 C-3.9375 9.375 -3.9375 9.375 -2 9 C-2.66 7.68 -3.32 6.36 -4 5 C-1 5 -1 5 0.6875 6.5 C1.120625 6.995 1.55375 7.49 2 8 C2.33 6.35 2.66 4.7 3 3 C2.01 2.67 1.02 2.34 0 2 C0 1.34 0 0.68 0 0 Z " fill="#92BB49" transform="translate(79,13)"/>
<path d="M0 0 C1.06863281 0.01804687 2.13726562 0.03609375 3.23828125 0.0546875 C4.04652344 0.07789063 4.85476562 0.10109375 5.6875 0.125 C6.82064263 4.22982793 6.47078091 6.88450737 5.25 10.9375 C4.81880859 12.40123047 4.81880859 12.40123047 4.37890625 13.89453125 C4.15074219 14.63058594 3.92257813 15.36664063 3.6875 16.125 C2.3675 16.125 1.0475 16.125 -0.3125 16.125 C-1.875 14.3125 -1.875 14.3125 -3.3125 12.125 C-3.869375 11.63 -4.42625 11.135 -5 10.625 C-6.3125 9.125 -6.3125 9.125 -6.3125 5.125 C-7.75346586 5.55094588 -9.19018712 5.99126633 -10.625 6.4375 C-11.82576172 6.80294922 -11.82576172 6.80294922 -13.05078125 7.17578125 C-15.46393168 8.18855423 -16.68376886 9.09535042 -18.3125 11.125 C-18.6425 12.115 -18.9725 13.105 -19.3125 14.125 C-19.9725 14.125 -20.6325 14.125 -21.3125 14.125 C-19.96736964 8.57633728 -15.78636216 5.32522212 -11.3125 2.125 C-7.43342078 0.15985591 -4.32212489 -0.09499176 0 0 Z " fill="#D1E089" transform="translate(93.3125,4.875)"/>
<path d="M0 0 C0.33 0 0.66 0 1 0 C1.01417969 0.89460938 1.02835938 1.78921875 1.04296875 2.7109375 C1.39708662 11.688304 2.46399768 19.01991354 8.67578125 25.83984375 C15.75094553 32.25612355 21.99900392 33.48163718 31.421875 33.296875 C35.73073863 32.93937103 38.28839473 32.14448304 42 30 C42.804375 29.608125 43.60875 29.21625 44.4375 28.8125 C44.953125 28.544375 45.46875 28.27625 46 28 C46 28.99 46 29.98 46 31 C43 33 43 33 40 33 C40 33.66 40 34.32 40 35 C36.67041792 36.66479104 32.96955686 36.18459065 29.3125 36.1875 C28.52166016 36.19974609 27.73082031 36.21199219 26.91601562 36.22460938 C21.88711538 36.23706743 17.76620267 35.61425606 13 34 C13 33.34 13 32.68 13 32 C12.01 31.67 11.02 31.34 10 31 C10 30.34 10 29.68 10 29 C9.05125 28.773125 8.1025 28.54625 7.125 28.3125 C4 27 4 27 2.625 24.375 C2.41875 23.59125 2.2125 22.8075 2 22 C1.34 22 0.68 22 0 22 C-0.22786458 19.94921875 -0.45572917 17.8984375 -0.68359375 15.84765625 C-0.81886614 13.98859771 -0.81886614 13.98859771 -2 13 C-2.07205511 11.31391034 -2.08386068 9.62499341 -2.0625 7.9375 C-2.05347656 7.01839844 -2.04445312 6.09929687 -2.03515625 5.15234375 C-2.02355469 4.44207031 -2.01195312 3.73179688 -2 3 C-1.34 3 -0.68 3 0 3 C0 2.01 0 1.02 0 0 Z " fill="#E68965" transform="translate(41,77)"/>
<path d="M0 0 C4.60883849 6.91325773 3.8527822 16.84717197 2.5390625 24.78515625 C0.22877056 33.36041634 -4.33642783 41.1203775 -11 47 C-11 45.68 -11 44.36 -11 43 C-10.34 43 -9.68 43 -9 43 C-9 41.68 -9 40.36 -9 39 C-8.34 39 -7.68 39 -7 39 C-6.67 36.36 -6.34 33.72 -6 31 C-5.01 30.67 -4.02 30.34 -3 30 C-2.93941406 29.43152344 -2.87882812 28.86304687 -2.81640625 28.27734375 C-2.43640473 24.77548355 -2.0459769 21.29310274 -1.5 17.8125 C-0.72426048 11.89748618 -0.38795314 5.95136628 0 0 Z " fill="#F5E398" transform="translate(113,70)"/>
<path d="M0 0 C0 0.99 0 1.98 0 3 C-0.66 3 -1.32 3 -2 3 C-2 3.66 -2 4.32 -2 5 C-3.42578125 6.3671875 -3.42578125 6.3671875 -5.3125 7.875 C-7.97623289 10.06613512 -9.96130525 12.21020719 -12 15 C-12.66 15 -13.32 15 -14 15 C-14.25265625 15.59167969 -14.5053125 16.18335938 -14.765625 16.79296875 C-16.14922386 19.26680848 -17.52323546 20.57337963 -19.75 22.3125 C-20.40484375 22.84488281 -21.0596875 23.37726563 -21.734375 23.92578125 C-24.98519959 25.46712049 -26.59726385 25.1142461 -30 24 C-32.16839417 22.18545605 -33.98321628 20.49635701 -35.875 18.4375 C-36.37257813 17.91736328 -36.87015625 17.39722656 -37.3828125 16.86132812 C-38.60028612 15.58532211 -39.80180992 14.29413056 -41 13 C-40.34 12.67 -39.68 12.34 -39 12 C-36.875 12.9375 -36.875 12.9375 -35 14 C-35 14.99 -35 15.98 -35 17 C-34.360625 17.103125 -33.72125 17.20625 -33.0625 17.3125 C-32.0415625 17.6528125 -32.0415625 17.6528125 -31 18 C-30.67 18.99 -30.34 19.98 -30 21 C-25.39378651 20.89688475 -25.39378651 20.89688475 -21.52734375 18.66796875 C-20.31309773 17.14180633 -19.15471074 15.57168961 -18 14 C-15 12 -15 12 -12 12 C-12 11.01 -12 10.02 -12 9 C-11.01 9 -10.02 9 -9 9 C-9 8.01 -9 7.02 -9 6 C-8.01 6 -7.02 6 -6 6 C-6 4.68 -6 3.36 -6 2 C-2.25 0 -2.25 0 0 0 Z " fill="#E58577" transform="translate(95,122)"/>
<path d="M0 0 C-0.66 0 -1.32 0 -2 0 C-2 0.66 -2 1.32 -2 2 C-3.74167699 3.3980016 -5.54470641 4.72020603 -7.375 6 C-11.37211214 8.78064768 -11.37211214 8.78064768 -15 12 C-15.1546875 13.11375 -15.1546875 13.11375 -15.3125 14.25 C-16.31201424 18.24805695 -18.08223152 20.08223152 -21 23 C-22.32 23 -23.64 23 -25 23 C-25.66 24.32 -26.32 25.64 -27 27 C-25.53496058 16.83628901 -17.91098761 8.95420622 -10 3 C-3.86408978 -1.28802993 -3.86408978 -1.28802993 0 0 Z " fill="#EEB487" transform="translate(52,42)"/>
<path d="M0 0 C0.33 0 0.66 0 1 0 C1.01458252 0.76143311 1.02916504 1.52286621 1.04418945 2.30737305 C1.11880541 5.76791888 1.21542259 9.22751445 1.3125 12.6875 C1.33505859 13.88568359 1.35761719 15.08386719 1.38085938 16.31835938 C1.41630859 17.47529297 1.45175781 18.63222656 1.48828125 19.82421875 C1.51446533 20.88729248 1.54064941 21.95036621 1.56762695 23.0456543 C2.05261588 26.35951711 3.21324154 28.20595319 5 31 C5.165 32.216875 5.33 33.43375 5.5 34.6875 C5.665 35.780625 5.83 36.87375 6 38 C6.99 38.66 7.98 39.32 9 40 C9.6875 42.625 9.6875 42.625 10 45 C3.7324816 39.83851426 0.04226789 32.24351928 -1.875 24.4375 C-1.91625 23.303125 -1.9575 22.16875 -2 21 C-2.03738281 20.16984375 -2.07476563 19.3396875 -2.11328125 18.484375 C-2.2832715 12.07842647 -1.51072739 6.21826185 0 0 Z " fill="#E7AA9A" transform="translate(24,69)"/>
<path d="M0 0 C2.02350324 3.03525486 2.32124018 4.19426202 2.625 7.6875 C2.69976562 8.49574219 2.77453125 9.30398437 2.8515625 10.13671875 C2.92503906 11.05904297 2.92503906 11.05904297 3 12 C-0.21451269 13.60725635 -3.43612536 13.05748185 -7 13 C-6.67 9.7 -6.34 6.4 -6 3 C-5.34 3 -4.68 3 -4 3 C-3.67 2.34 -3.34 1.68 -3 1 C-2.01 0.67 -1.02 0.34 0 0 Z " fill="#60A746" transform="translate(76,22)"/>
<path d="M0 0 C0.66 0 1.32 0 2 0 C2.82011312 1.55851755 3.63076213 3.12201716 4.4375 4.6875 C4.88996094 5.55761719 5.34242187 6.42773438 5.80859375 7.32421875 C6.95991928 9.90998264 7.56320753 12.21356528 8 15 C7.34 15 6.68 15 6 15 C5.67 20.61 5.34 26.22 5 32 C4.34 32 3.68 32 3 32 C2.938125 32.598125 2.87625 33.19625 2.8125 33.8125 C1.66061101 36.91373958 -0.06759592 37.64108103 -3 39 C-3.66 38.67 -4.32 38.34 -5 38 C-3.8553125 36.7315625 -3.8553125 36.7315625 -2.6875 35.4375 C3.73678087 27.5166537 3.84346579 20.0134529 3 10 C2.25859355 7.07698377 1.2905119 4.74233778 0 2 C0 1.34 0 0.68 0 0 Z " fill="#EDC165" transform="translate(92,66)"/>
<path d="M0 0 C1.98 0.66 3.96 1.32 6 2 C6 3.65 6 5.3 6 7 C3 7 3 7 1.3125 5.5 C0.879375 5.005 0.44625 4.51 0 4 C0.7734375 5.1446875 0.7734375 5.1446875 1.5625 6.3125 C2.036875 7.199375 2.51125 8.08625 3 9 C2.67 9.99 2.34 10.98 2 12 C1.34 11.01 0.68 10.02 0 9 C-1.98 9.66 -3.96 10.32 -6 11 C-6.33 14.3 -6.66 17.6 -7 21 C-7.33 21 -7.66 21 -8 21 C-8.37952295 14.80112515 -7.8352113 10.5522888 -5 5 C-4.01 5 -3.02 5 -2 5 C-1.855625 4.360625 -1.71125 3.72125 -1.5625 3.0625 C-1 1 -1 1 0 0 Z " fill="#93BF78" transform="translate(76,14)"/>
<path d="M0 0 C10.00621858 1.47632733 18.31796931 6.39630991 25 14 C24.67 14.66 24.34 15.32 24 16 C23.319375 15.1028125 23.319375 15.1028125 22.625 14.1875 C18.28874165 10.57395137 12.62892212 9 7 9 C6.34 6.69 5.68 4.38 5 2 C3.35 1.67 1.7 1.34 0 1 C0 0.67 0 0.34 0 0 Z " fill="#F6EA81" transform="translate(80,39)"/>
<path d="M0 0 C0.85335937 -0.01160156 1.70671875 -0.02320313 2.5859375 -0.03515625 C3.80796875 -0.02935547 3.80796875 -0.02935547 5.0546875 -0.0234375 C5.78929199 -0.02005371 6.52389648 -0.01666992 7.28076172 -0.01318359 C9.125 0.375 9.125 0.375 11.125 3.375 C10.155625 3.21 9.18625 3.045 8.1875 2.875 C-1.21272645 1.6103109 -9.13633467 2.17347717 -17.0625 7.9765625 C-18.71771149 9.38482711 -20.30453209 10.87281331 -21.875 12.375 C-20.67118552 9.88138429 -19.42071278 7.69356917 -17.875 5.375 C-17.875 4.715 -17.875 4.055 -17.875 3.375 C-11.70785122 0.68310365 -6.69798495 -0.09360538 0 0 Z " fill="#EFCC95" transform="translate(68.875,56.625)"/>
<path d="M0 0 C0 0.99 0 1.98 0 3 C-0.66 3 -1.32 3 -2 3 C-2 3.66 -2 4.32 -2 5 C-3.42578125 6.3671875 -3.42578125 6.3671875 -5.3125 7.875 C-7.97623289 10.06613512 -9.96130525 12.21020719 -12 15 C-12.66 15 -13.32 15 -14 15 C-14.268125 15.639375 -14.53625 16.27875 -14.8125 16.9375 C-16 19 -16 19 -19 20 C-19 19.01 -19 18.02 -19 17 C-18.01 17 -17.02 17 -16 17 C-15.67 15.35 -15.34 13.7 -15 12 C-14.01 12 -13.02 12 -12 12 C-12 11.01 -12 10.02 -12 9 C-11.01 9 -10.02 9 -9 9 C-9 8.01 -9 7.02 -9 6 C-8.01 6 -7.02 6 -6 6 C-6 4.68 -6 3.36 -6 2 C-2.25 0 -2.25 0 0 0 Z " fill="#E8A68F" transform="translate(95,122)"/>
<path d="M0 0 C0.495 1.485 0.495 1.485 1 3 C-2 5 -2 5 -5 5 C-5 5.66 -5 6.32 -5 7 C-8.32958208 8.66479104 -12.03044314 8.18459065 -15.6875 8.1875 C-16.47833984 8.19974609 -17.26917969 8.21199219 -18.08398438 8.22460938 C-23.11288462 8.23706743 -27.23379733 7.61425606 -32 6 C-32 5.67 -32 5.34 -32 5 C-31.0553186 5.02356567 -31.0553186 5.02356567 -30.09155273 5.04760742 C-27.20696175 5.11040232 -24.32251514 5.14913058 -21.4375 5.1875 C-19.9515332 5.22520508 -19.9515332 5.22520508 -18.43554688 5.26367188 C-10.88716934 5.33890487 -6.33803809 4.22535873 0 0 Z " fill="#E88A61" transform="translate(86,105)"/>
<path d="M0 0 C1.03159626 3.09478879 0.97482862 4.52631393 0.5625 7.6875 C0.46066406 8.49574219 0.35882813 9.30398437 0.25390625 10.13671875 C0.17011719 10.75160156 0.08632812 11.36648437 0 12 C-0.66 12 -1.32 12 -2 12 C-1.855625 12.969375 -1.71125 13.93875 -1.5625 14.9375 C-1.48350497 20.4445819 -5.53448198 24.10129222 -9 28 C-9.33 26.68 -9.66 25.36 -10 24 C-9.34 24 -8.68 24 -8 24 C-8 22.68 -8 21.36 -8 20 C-7.34 20 -6.68 20 -6 20 C-5.67 17.36 -5.34 14.72 -5 12 C-4.01 11.67 -3.02 11.34 -2 11 C-1.93941406 10.37351562 -1.87882812 9.74703125 -1.81640625 9.1015625 C-1.73261719 8.28429687 -1.64882812 7.46703125 -1.5625 6.625 C-1.48128906 5.81289062 -1.40007812 5.00078125 -1.31640625 4.1640625 C-1 2 -1 2 0 0 Z " fill="#F2BE62" transform="translate(112,89)"/>
<path d="M0 0 C2.64 0 5.28 0 8 0 C7.34 0.66 6.68 1.32 6 2 C8.475 2.495 8.475 2.495 11 3 C11 3.33 11 3.66 11 4 C9.72382812 4.06058594 8.44765625 4.12117188 7.1328125 4.18359375 C5.46352984 4.26799568 3.79425963 4.35264386 2.125 4.4375 C1.28324219 4.47681641 0.44148438 4.51613281 -0.42578125 4.55664062 C-1.23144531 4.59853516 -2.03710938 4.64042969 -2.8671875 4.68359375 C-3.61081543 4.72025146 -4.35444336 4.75690918 -5.12060547 4.79467773 C-7.08864312 4.89955865 -7.08864312 4.89955865 -9 6 C-11.6723621 6.13415472 -14.32250488 6.04318541 -17 6 C-13.55080374 3.70053583 -10.8618978 3.19230965 -6.8125 2.375 C-4.90404297 1.98441406 -4.90404297 1.98441406 -2.95703125 1.5859375 C-1.98121094 1.39257812 -1.00539063 1.19921875 0 1 C0 0.67 0 0.34 0 0 Z " fill="#F7E7A5" transform="translate(69,35)"/>
<path d="M0 0 C-0.69287844 7.15974393 -1.90815892 8.90815892 -7 14 C-7.05447047 12.58376784 -7.09300508 11.16691809 -7.125 9.75 C-7.14820312 8.96109375 -7.17140625 8.1721875 -7.1953125 7.359375 C-6.97962391 4.75385683 -6.3921178 3.20013023 -5 1 C-3 0 -3 0 0 0 Z " fill="#EC8C62" transform="translate(32,64)"/>
<path d="M0 0 C0.99 0.66 1.98 1.32 3 2 C0.54815631 7.70839506 -4.4140824 11.62084395 -9.8125 14.5 C-12 15 -12 15 -15 14 C-14.34 14 -13.68 14 -13 14 C-13 13.34 -13 12.68 -13 12 C-12.030625 11.731875 -11.06125 11.46375 -10.0625 11.1875 C-9.051875 10.795625 -8.04125 10.40375 -7 10 C-6.67 9.01 -6.34 8.02 -6 7 C-5.01 6.34 -4.02 5.68 -3 5 C-1.94895617 3.36504293 -0.94011682 1.70116376 0 0 Z " fill="#A0C27B" transform="translate(92,20)"/>
<path d="M0 0 C0.90105469 0.00902344 1.80210938 0.01804687 2.73046875 0.02734375 C3.41753906 0.03894531 4.10460937 0.05054688 4.8125 0.0625 C4.86673638 1.97885217 4.90539963 3.89564925 4.9375 5.8125 C4.96070312 6.87984375 4.98390625 7.9471875 5.0078125 9.046875 C4.81737687 11.98720106 4.33920104 13.58611878 2.8125 16.0625 C0.79887547 12.03525094 2.40091016 6.36132718 2.8125 2.0625 C-3.6225 2.5575 -3.6225 2.5575 -10.1875 3.0625 C-7.02470604 -0.10029396 -4.26614261 -0.05540445 0 0 Z " fill="#D8E08B" transform="translate(93.1875,5.9375)"/>
<path d="M0 0 C1.9375 0.3125 1.9375 0.3125 4 1 C4.33 1.99 4.66 2.98 5 4 C5.99 4 6.98 4 8 4 C8.33 4.99 8.66 5.98 9 7 C10.62652316 8.70586575 12.29006566 10.3777546 14 12 C13.67 12.99 13.34 13.98 13 15 C11.0146241 13.06852571 9.03670608 11.13033391 7.0625 9.1875 C6.49853516 8.64029297 5.93457031 8.09308594 5.35351562 7.52929688 C1.11328125 3.33984375 1.11328125 3.33984375 0 0 Z " fill="#E37E6D" transform="translate(40,119)"/>
<path d="M0 0 C-0.66 0 -1.32 0 -2 0 C-2 0.66 -2 1.32 -2 2 C-3.79296875 3.40234375 -3.79296875 3.40234375 -6.1875 4.9375 C-7.00863281 5.46730469 -7.82976563 5.99710938 -8.67578125 6.54296875 C-11.09847203 8.06173121 -13.53538072 9.55022395 -16 11 C-16.99 11.66 -17.98 12.32 -19 13 C-16.54544749 7.02769308 -6.50707632 -2.16902544 0 0 Z " fill="#F5D9AB" transform="translate(52,42)"/>
<path d="M0 0 C1.98 0.66 3.96 1.32 6 2 C6 3.65 6 5.3 6 7 C3 7 3 7 1.3125 5.5 C0.879375 5.005 0.44625 4.51 0 4 C-0.33 4.66 -0.66 5.32 -1 6 C-1.99 6.33 -2.98 6.66 -4 7 C-4.66 7.66 -5.32 8.32 -6 9 C-5.67 7.68 -5.34 6.36 -5 5 C-4.01 5 -3.02 5 -2 5 C-1.855625 4.360625 -1.71125 3.72125 -1.5625 3.0625 C-1 1 -1 1 0 0 Z " fill="#96BB64" transform="translate(76,14)"/>
<path d="M0 0 C0.91007812 0.00902344 1.82015625 0.01804688 2.7578125 0.02734375 C3.45648438 0.03894531 4.15515625 0.05054688 4.875 0.0625 C3.946875 0.4646875 3.946875 0.4646875 3 0.875 C0.5754767 2.01806848 0.5754767 2.01806848 -1.125 5.0625 C-2.115 4.7325 -3.105 4.4025 -4.125 4.0625 C-7.2918838 5.43742804 -7.2918838 5.43742804 -10.125 7.0625 C-10.125 6.0725 -10.125 5.0825 -10.125 4.0625 C-9.135 3.7325 -8.145 3.4025 -7.125 3.0625 C-7.125 2.4025 -7.125 1.7425 -7.125 1.0625 C-4.60024538 -0.19987731 -2.81299534 -0.03606404 0 0 Z " fill="#EFBE60" transform="translate(57.125,40.9375)"/>
<path d="M0 0 C2.80284587 2.53160272 4.5240695 4.19255603 5 8 C5 9.32 5 10.64 5 12 C5.66 12 6.32 12 7 12 C7 12.66 7 13.32 7 14 C5.35 14.33 3.7 14.66 2 15 C2.03480469 14.40832031 2.06960937 13.81664062 2.10546875 13.20703125 C2.27563175 8.2398924 2.16855209 5.09271311 -1 1 C-0.67 0.67 -0.34 0.34 0 0 Z " fill="#79AE47" transform="translate(76,17)"/>
<path d="M0 0 C0.33 0.99 0.66 1.98 1 3 C-4.28 3 -9.56 3 -15 3 C-14.67 2.34 -14.34 1.68 -14 1 C-9.31604754 -0.14242743 -4.78644729 -0.08252495 0 0 Z " fill="#EDC363" transform="translate(75,54)"/>
<path d="M0 0 C0.66 0 1.32 0 2 0 C2 2.64 2 5.28 2 8 C5.465 7.505 5.465 7.505 9 7 C9 7.66 9 8.32 9 9 C5.78548731 10.60725635 2.56387464 10.05748185 -1 10 C-0.67 6.7 -0.34 3.4 0 0 Z " fill="#5F9753" transform="translate(70,25)"/>
<path d="M0 0 C0 0.99 0 1.98 0 3 C-0.66 3 -1.32 3 -2 3 C-2 3.66 -2 4.32 -2 5 C-3.53125 6.2890625 -3.53125 6.2890625 -5.5 7.625 C-6.1496875 8.07101563 -6.799375 8.51703125 -7.46875 8.9765625 C-7.9740625 9.31429687 -8.479375 9.65203125 -9 10 C-9 8.68 -9 7.36 -9 6 C-8.01 6 -7.02 6 -6 6 C-6 4.68 -6 3.36 -6 2 C-2.25 0 -2.25 0 0 0 Z " fill="#E4A47E" transform="translate(95,122)"/>
<path d="M0 0 C0.99 0.33 1.98 0.66 3 1 C2.60167969 1.49628906 2.20335937 1.99257813 1.79296875 2.50390625 C-1.59884975 6.85302633 -4.06315984 10.8350929 -6 16 C-6.81998065 13.64518377 -7.13384316 12.39841683 -6.328125 10 C-5.97234375 9.34 -5.6165625 8.68 -5.25 8 C-4.87875 7.3090625 -4.5075 6.618125 -4.125 5.90625 C-2.88877891 3.81154205 -1.55774771 1.86929725 0 0 Z " fill="#E4A56E" transform="translate(49,61)"/>
<path d="M0 0 C0.33 0.99 0.66 1.98 1 3 C-4.60124195 5.92792193 -8.44274582 7.13758636 -14.75 7.0625 C-15.73484375 7.05347656 -16.7196875 7.04445313 -17.734375 7.03515625 C-18.48203125 7.02355469 -19.2296875 7.01195313 -20 7 C-20 6.67 -20 6.34 -20 6 C-19.05898437 5.90203125 -18.11796875 5.8040625 -17.1484375 5.703125 C-7.80593065 4.71562205 -7.80593065 4.71562205 0 0 Z " fill="#E8A77D" transform="translate(86,105)"/>
<path d="M0 0 C0.268125 0.639375 0.53625 1.27875 0.8125 1.9375 C1.88667752 4.33131686 1.88667752 4.33131686 5 5 C5 5.99 5 6.98 5 8 C5.99 8.66 6.98 9.32 8 10 C8.6875 12.625 8.6875 12.625 9 15 C4.99153025 11.3255694 2.4396032 7.87920641 0 3 C0 2.01 0 1.02 0 0 Z " fill="#EEB1A7" transform="translate(25,99)"/>
<path d="M0 0 C3.89081843 1.29693948 6.48181674 2.70699112 9 6 C8.75 8.25 8.75 8.25 8 10 C6.33333333 8.33333333 4.66666667 6.66666667 3 5 C2.401875 4.443125 1.80375 3.88625 1.1875 3.3125 C0 2 0 2 0 0 Z " fill="#F2E463" transform="translate(96,49)"/>
<path d="M0 0 C0 3.60573896 -0.81707462 4.41336566 -3 7.1875 C-3.556875 7.90292969 -4.11375 8.61835937 -4.6875 9.35546875 C-5.120625 9.89816406 -5.55375 10.44085938 -6 11 C-6.33 9.68 -6.66 8.36 -7 7 C-6.34 7 -5.68 7 -5 7 C-5 5.68 -5 4.36 -5 3 C-4.34 3 -3.68 3 -3 3 C-3 2.34 -3 1.68 -3 1 C-2.01 0.67 -1.02 0.34 0 0 Z " fill="#F1C897" transform="translate(109,106)"/>
<path d="M0 0 C0.68513672 -0.01611328 1.37027344 -0.03222656 2.07617188 -0.04882812 C4.06640625 -0.05078125 4.06640625 -0.05078125 7.4375 0.3125 C8.0975 1.3025 8.7575 2.2925 9.4375 3.3125 C8.1071875 3.065 8.1071875 3.065 6.75 2.8125 C1.01959173 1.97188226 -4.78674581 2.2343319 -10.5625 2.3125 C-6.9343205 -0.10628634 -4.19414978 -0.01983988 0 0 Z " fill="#FBE9AE" transform="translate(70.5625,56.6875)"/>
<path d="M0 0 C1.77503906 0.03480469 1.77503906 0.03480469 3.5859375 0.0703125 C5.36871094 0.09738281 5.36871094 0.09738281 7.1875 0.125 C8.10273437 0.14820313 9.01796875 0.17140625 9.9609375 0.1953125 C9.6309375 0.8553125 9.3009375 1.5153125 8.9609375 2.1953125 C4.04035911 3.51546768 -0.09220091 2.96292895 -5.0390625 2.1953125 C-3.0390625 0.1953125 -3.0390625 0.1953125 0 0 Z " fill="#EDCC62" transform="translate(65.0390625,38.8046875)"/>
<path d="M0 0 C1.98 0 3.96 0 6 0 C6 2.64 6 5.28 6 8 C5.01 8.495 5.01 8.495 4 9 C3.87882812 8.43410156 3.75765625 7.86820313 3.6328125 7.28515625 C3.38144531 6.18494141 3.38144531 6.18494141 3.125 5.0625 C2.96257812 4.33160156 2.80015625 3.60070312 2.6328125 2.84765625 C2.17038477 0.79299706 2.17038477 0.79299706 0 0 Z " fill="#CCD855" transform="translate(90,8)"/>
<path d="M0 0 C2.99220268 1.36370299 5.29026529 2.94908083 7.75 5.125 C8.67039062 5.93324219 8.67039062 5.93324219 9.609375 6.7578125 C10.06828125 7.16773438 10.5271875 7.57765625 11 8 C10.67 8.66 10.34 9.32 10 10 C9.46375 9.401875 8.9275 8.80375 8.375 8.1875 C5.76857355 5.78684406 3.2115927 4.45981486 0 3 C0 2.01 0 1.02 0 0 Z " fill="#FAF3A7" transform="translate(94,45)"/>
<path d="M0 0 C0.99 0.66 1.98 1.32 3 2 C1.50902342 5.7952131 -0.75700849 7.61042731 -4 10 C-4.33 9.01 -4.66 8.02 -5 7 C-4.0409375 6.1028125 -4.0409375 6.1028125 -3.0625 5.1875 C-0.79689611 3.09189663 -0.79689611 3.09189663 0 0 Z " fill="#B8CB7F" transform="translate(92,20)"/>
<path d="M0 0 C5.50588235 0.48941176 5.50588235 0.48941176 7.875 2.9375 C9 5 9 5 9 7 C4.58110387 5.64978174 2.65654657 3.73884332 0 0 Z " fill="#F2D882" transform="translate(76,56)"/>
<path d="M0 0 C1.48285242 0.95262034 2.96118201 1.91228405 4.4375 2.875 C5.67306641 3.67550781 5.67306641 3.67550781 6.93359375 4.4921875 C9 6 9 6 10 8 C7.03 7.505 7.03 7.505 4 7 C3.67 6.01 3.34 5.02 3 4 C2.01 3.67 1.02 3.34 0 3 C0 2.01 0 1.02 0 0 Z " fill="#E08C73" transform="translate(48,102)"/>
<path d="M0 0 C2.31 0.33 4.62 0.66 7 1 C7.33 2.98 7.66 4.96 8 7 C2.25 3.375 2.25 3.375 0 0 Z " fill="#F2DA87" transform="translate(85,63)"/>
<path d="M0 0 C0.66 0.33 1.32 0.66 2 1 C0.02 3.31 -1.96 5.62 -4 8 C-4.99 7.34 -5.98 6.68 -7 6 C-4.69 4.02 -2.38 2.04 0 0 Z " fill="#F3A85A" transform="translate(43,48)"/>
<path d="M0 0 C2.64 0 5.28 0 8 0 C7.01 1.485 7.01 1.485 6 3 C3.1796875 3.29296875 3.1796875 3.29296875 -0.125 3.1875 C-1.76855469 3.14689453 -1.76855469 3.14689453 -3.4453125 3.10546875 C-4.28835937 3.07066406 -5.13140625 3.03585938 -6 3 C-6 2.67 -6 2.34 -6 2 C-4.02 1.67 -2.04 1.34 0 1 C0 0.67 0 0.34 0 0 Z " fill="#EEF8CF" transform="translate(69,35)"/>
<path d="M0 0 C3.11954738 0.33724836 4.6209965 0.6209965 6.875 2.875 C7.24625 3.57625 7.6175 4.2775 8 5 C7.67 5.99 7.34 6.98 7 8 C5.83035398 6.8572081 4.66435444 5.71068285 3.5 4.5625 C2.8503125 3.92441406 2.200625 3.28632813 1.53125 2.62890625 C0 1 0 1 0 0 Z " fill="#E38879" transform="translate(46,126)"/>
<path d="M0 0 C2.475 0.495 2.475 0.495 5 1 C5 1.66 5 2.32 5 3 C5.66 3 6.32 3 7 3 C7 4.32 7 5.64 7 7 C6.34 7 5.68 7 5 7 C5 6.34 5 5.68 5 5 C4.360625 4.731875 3.72125 4.46375 3.0625 4.1875 C1 3 1 3 0 0 Z " fill="#EA9E92" transform="translate(34,114)"/>
<path d="M0 0 C1.98 0.66 3.96 1.32 6 2 C6 2.99 6 3.98 6 5 C6.66 5 7.32 5 8 5 C7.67 5.99 7.34 6.98 7 8 C5.83035398 6.8572081 4.66435444 5.71068285 3.5 4.5625 C2.8503125 3.92441406 2.200625 3.28632813 1.53125 2.62890625 C0 1 0 1 0 0 Z " fill="#E5897C" transform="translate(54,134)"/>
<path d="M0 0 C4.5929708 3.52127761 5.11941917 7.57747597 6 13 C5.34 13 4.68 13 4 13 C3.51891725 11.58398286 3.04021859 10.16715563 2.5625 8.75 C2.29566406 7.96109375 2.02882813 7.1721875 1.75390625 6.359375 C1.08045292 4.25178012 0.50849405 2.15246027 0 0 Z " fill="#F5DF53" transform="translate(105,59)"/>
<path d="M0 0 C3.08089673 2.77280706 4.68775452 5.06326356 6 9 C2.56225537 7.85408512 1.82586841 7.04311402 0 4 C0 2.68 0 1.36 0 0 Z " fill="#F6F1A2" transform="translate(105,55)"/>
<path d="M0 0 C4 4.625 4 4.625 4 8 C3.01 8 2.02 8 1 8 C-0.35439668 5.29120665 -0.06501451 2.99066732 0 0 Z " fill="#E08067" transform="translate(44,96)"/>
<path d="M0 0 C0.66 0.33 1.32 0.66 2 1 C2 2.98 2 4.96 2 7 C1.01 7.33 0.02 7.66 -1 8 C-1.125 2.25 -1.125 2.25 0 0 Z " fill="#AAC847" transform="translate(90,16)"/>
<path d="M0 0 C0.66 0 1.32 0 2 0 C2 0.99 2 1.98 2 3 C1.01 3 0.02 3 -1 3 C-1.33 4.32 -1.66 5.64 -2 7 C-2.66 6.67 -3.32 6.34 -4 6 C-2.84826645 3.53199953 -1.95216435 1.95216435 0 0 Z " fill="#E47960" transform="translate(77,136)"/>
<path d="M0 0 C0.33 0.66 0.66 1.32 1 2 C1.66 2.33 2.32 2.66 3 3 C0.03 5.475 0.03 5.475 -3 8 C-1.125 1.125 -1.125 1.125 0 0 Z " fill="#F3CF95" transform="translate(99,115)"/>
</svg>
